{
	"asset":{
		"generator":"Khronos glTF Blender I/O v4.4.56",
		"version":"2.0"
	},
	"scene":0,
	"scenes":[
		{
			"name":"Scene",
			"nodes":[
				0,
				1,
				2,
				3
			]
		}
	],
	"nodes":[
		{
			"mesh":0,
			"name":"\u30c8\u30fc\u30e9\u30b9",
			"rotation":[
				0,
				0,
				-0.6999067068099976,
				0.7142342925071716
			],
			"scale":[
				0.5,
				1,
				0.5
			],
			"translation":[
				-0.02428114414215088,
				2.6538596153259277,
				-0.03482547402381897
			]
		},
		{
			"mesh":1,
			"name":"\u5186\u67f1",
			"rotation":[
				0,
				0,
				0.0022536050528287888,
				0.9999974966049194
			],
			"scale":[
				0.10000000149011612,
				1,
				0.10000000149011612
			],
			"translation":[
				0.00836801528930664,
				0.08824515342712402,
				-0.03482547402381897
			]
		},
		{
			"mesh":2,
			"name":"\u5186\u67f1.001",
			"rotation":[
				0.7098512649536133,
				0.012785171158611774,
				0.0015870771603658795,
				0.7042337656021118
			],
			"scale":[
				0.09998894482851028,
				0.33035096526145935,
				0.09999707341194153
			],
			"translation":[
				-0.08052146434783936,
				1.0197715759277344,
				-0.3899485170841217
			]
		},
		{
			"mesh":3,
			"name":"\u5186\u67f1.002",
			"rotation":[
				0.7098512649536133,
				0.012785171158611774,
				0.0015870771603658795,
				0.7042337656021118
			],
			"scale":[
				0.09998894482851028,
				0.33035096526145935,
				0.09999707341194153
			],
			"translation":[
				-0.06969833374023438,
				0.48570680618286133,
				-0.3899485170841217
			]
		}
	],
	"materials":[
		{
			"doubleSided":true,
			"name":"\u30de\u30c6\u30ea\u30a2\u30eb.001",
			"pbrMetallicRoughness":{
				"baseColorFactor":[
					0.8005210161209106,
					0.7320499420166016,
					0,
					1
				],
				"metallicFactor":0,
				"roughnessFactor":0.5
			}
		},
		{
			"doubleSided":true,
			"name":"\u30de\u30c6\u30ea\u30a2\u30eb",
			"pbrMetallicRoughness":{
				"baseColorFactor":[
					0.800000011920929,
					0.800000011920929,
					0.800000011920929,
					1
				],
				"metallicFactor":0,
				"roughnessFactor":0.5
			}
		},
		{
			"doubleSided":true,
			"name":"\u30de\u30c6\u30ea\u30a2\u30eb.002",
			"pbrMetallicRoughness":{
				"baseColorFactor":[
					0.7956081032752991,
					0.8004660606384277,
					0,
					1
				],
				"metallicFactor":0,
				"roughnessFactor":0.5
			}
		},
		{
			"doubleSided":true,
			"name":"\u30de\u30c6\u30ea\u30a2\u30eb.003",
			"pbrMetallicRoughness":{
				"baseColorFactor":[
					0.8004156351089478,
					0.7311837673187256,
					0,
					1
				],
				"metallicFactor":0,
				"roughnessFactor":0.5
			}
		}
	],
	"meshes":[
		{
			"name":"\u30c8\u30fc\u30e9\u30b9",
			"primitives":[
				{
					"attributes":{
						"POSITION":0,
						"NORMAL":1,
						"TEXCOORD_0":2
					},
					"indices":3,
					"material":0
				}
			]
		},
		{
			"name":"\u5186\u67f1",
			"primitives":[
				{
					"attributes":{
						"POSITION":4,
						"NORMAL":5,
						"TEXCOORD_0":6
					},
					"indices":7,
					"material":1
				}
			]
		},
		{
			"name":"\u5186\u67f1.001",
			"primitives":[
				{
					"attributes":{
						"POSITION":8,
						"NORMAL":9,
						"TEXCOORD_0":10
					},
					"indices":7,
					"material":2
				}
			]
		},
		{
			"name":"\u5186\u67f1.002",
			"primitives":[
				{
					"attributes":{
						"POSITION":11,
						"NORMAL":12,
						"TEXCOORD_0":13
					},
					"indices":7,
					"material":3
				}
			]
		}
	],
	"accessors":[
		{
			"bufferView":0,
			"componentType":5126,
			"count":2304,
			"max":[
				1.25,
				0.25,
				1.25
			],
			"min":[
				-1.25,
				-0.25,
				-1.25
			],
			"type":"VEC3"
		},
		{
			"bufferView":1,
			"componentType":5126,
			"count":2304,
			"type":"VEC3"
		},
		{
			"bufferView":2,
			"componentType":5126,
			"count":2304,
			"type":"VEC2"
		},
		{
			"bufferView":3,
			"componentType":5123,
			"count":3456,
			"type":"SCALAR"
		},
		{
			"bufferView":4,
			"componentType":5126,
			"count":192,
			"max":[
				1,
				2.000000238418579,
				1
			],
			"min":[
				-1,
				2.384185791015625e-07,
				-1
			],
			"type":"VEC3"
		},
		{
			"bufferView":5,
			"componentType":5126,
			"count":192,
			"type":"VEC3"
		},
		{
			"bufferView":6,
			"componentType":5126,
			"count":192,
			"type":"VEC2"
		},
		{
			"bufferView":7,
			"componentType":5123,
			"count":372,
			"type":"SCALAR"
		},
		{
			"bufferView":8,
			"componentType":5126,
			"count":192,
			"max":[
				1,
				1,
				1
			],
			"min":[
				-1,
				-1,
				-1
			],
			"type":"VEC3"
		},
		{
			"bufferView":9,
			"componentType":5126,
			"count":192,
			"type":"VEC3"
		},
		{
			"bufferView":10,
			"componentType":5126,
			"count":192,
			"type":"VEC2"
		},
		{
			"bufferView":11,
			"componentType":5126,
			"count":192,
			"max":[
				1,
				1,
				1
			],
			"min":[
				-1,
				-1,
				-1
			],
			"type":"VEC3"
		},
		{
			"bufferView":12,
			"componentType":5126,
			"count":192,
			"type":"VEC3"
		},
		{
			"bufferView":13,
			"componentType":5126,
			"count":192,
			"type":"VEC2"
		}
	],
	"bufferViews":[
		{
			"buffer":0,
			"byteLength":27648,
			"byteOffset":0,
			"target":34962
		},
		{
			"buffer":0,
			"byteLength":27648,
			"byteOffset":27648,
			"target":34962
		},
		{
			"buffer":0,
			"byteLength":18432,
			"byteOffset":55296,
			"target":34962
		},
		{
			"buffer":0,
			"byteLength":6912,
			"byteOffset":73728,
			"target":34963
		},
		{
			"buffer":0,
			"byteLength":2304,
			"byteOffset":80640,
			"target":34962
		},
		{
			"buffer":0,
			"byteLength":2304,
			"byteOffset":82944,
			"target":34962
		},
		{
			"buffer":0,
			"byteLength":1536,
			"byteOffset":85248,
			"target":34962
		},
		{
			"buffer":0,
			"byteLength":744,
			"byteOffset":86784,
			"target":34963
		},
		{
			"buffer":0,
			"byteLength":2304,
			"byteOffset":87528,
			"target":34962
		},
		{
			"buffer":0,
			"byteLength":2304,
			"byteOffset":89832,
			"target":34962
		},
		{
			"buffer":0,
			"byteLength":1536,
			"byteOffset":92136,
			"target":34962
		},
		{
			"buffer":0,
			"byteLength":2304,
			"byteOffset":93672,
			"target":34962
		},
		{
			"buffer":0,
			"byteLength":2304,
			"byteOffset":95976,
			"target":34962
		},
		{
			"buffer":0,
			"byteLength":1536,
			"byteOffset":98280,
			"target":34962
		}
	],
	"buffers":[
		{
			"byteLength":99816,
			"uri":"key2.bin"
		}
	]
}
