{
	"asset":{
		"generator":"Khronos glTF Blender I/O v4.4.56",
		"version":"2.0"
	},
	"scene":0,
	"scenes":[
		{
			"name":"Scene",
			"nodes":[
				0
			]
		}
	],
	"nodes":[
		{
			"mesh":0,
			"name":"arrow3",
			"rotation":[
				-0.030692489817738533,
				0.706440269947052,
				-0.020205169916152954,
				0.7068181037902832
			]
		}
	],
	"meshes":[
		{
			"name":"arrow3",
			"primitives":[
				{
					"attributes":{
						"POSITION":0,
						"NORMAL":1
					},
					"indices":2
				}
			]
		}
	],
	"accessors":[
		{
			"bufferView":0,
			"componentType":5126,
			"count":30,
			"max":[
				0.7149999737739563,
				0.20000000298023224,
				0.7149999737739563
			],
			"min":[
				-0.7149999737739563,
				-0.20000000298023224,
				-0.7149999737739563
			],
			"type":"VEC3"
		},
		{
			"bufferView":1,
			"componentType":5126,
			"count":30,
			"type":"VEC3"
		},
		{
			"bufferView":2,
			"componentType":5123,
			"count":180,
			"type":"SCALAR"
		}
	],
	"bufferViews":[
		{
			"buffer":0,
			"byteLength":360,
			"byteOffset":0,
			"target":34962
		},
		{
			"buffer":0,
			"byteLength":360,
			"byteOffset":360,
			"target":34962
		},
		{
			"buffer":0,
			"byteLength":360,
			"byteOffset":720,
			"target":34963
		}
	],
	"buffers":[
		{
			"byteLength":1080,
			"uri":"Arrow3.bin"
		}
	]
}
