{
	"asset":{
		"generator":"Khronos glTF Blender I/O v4.4.56",
		"version":"2.0"
	},
	"scene":0,
	"scenes":[
		{
			"name":"Scene",
			"nodes":[
				0
			]
		}
	],
	"nodes":[
		{
			"mesh":0,
			"name":"arrow4",
			"rotation":[
				0.006260900292545557,
				0.7070790529251099,
				-0.00811217725276947,
				0.7070602774620056
			]
		}
	],
	"meshes":[
		{
			"name":"arrow4",
			"primitives":[
				{
					"attributes":{
						"POSITION":0,
						"NORMAL":1
					},
					"indices":2
				}
			]
		}
	],
	"accessors":[
		{
			"bufferView":0,
			"componentType":5126,
			"count":28,
			"max":[
				0.7333300113677979,
				0.30000001192092896,
				0.6350899934768677
			],
			"min":[
				-1.2926299571990967,
				-0.30000001192092896,
				-0.6350899934768677
			],
			"type":"VEC3"
		},
		{
			"bufferView":1,
			"componentType":5126,
			"count":28,
			"type":"VEC3"
		},
		{
			"bufferView":2,
			"componentType":5123,
			"count":156,
			"type":"SCALAR"
		}
	],
	"bufferViews":[
		{
			"buffer":0,
			"byteLength":336,
			"byteOffset":0,
			"target":34962
		},
		{
			"buffer":0,
			"byteLength":336,
			"byteOffset":336,
			"target":34962
		},
		{
			"buffer":0,
			"byteLength":312,
			"byteOffset":672,
			"target":34963
		}
	],
	"buffers":[
		{
			"byteLength":984,
			"uri":"Arrow4.bin"
		}
	]
}
