{
	"asset":{
		"generator":"Khronos glTF Blender I/O v4.4.56",
		"version":"2.0"
	},
	"scene":0,
	"scenes":[
		{
			"name":"Scene",
			"nodes":[
				0
			]
		}
	],
	"nodes":[
		{
			"mesh":0,
			"name":"arrow1",
			"rotation":[
				0.008307995274662971,
				0.7070580720901489,
				-0.012257814407348633,
				0.7070004940032959
			]
		}
	],
	"meshes":[
		{
			"name":"arrow1",
			"primitives":[
				{
					"attributes":{
						"POSITION":0,
						"NORMAL":1
					},
					"indices":2
				}
			]
		}
	],
	"accessors":[
		{
			"bufferView":0,
			"componentType":5126,
			"count":36,
			"max":[
				1.8333300352096558,
				0.30000001192092896,
				0.6350899934768677
			],
			"min":[
				-1.466670036315918,
				-0.28999999165534973,
				-0.6350899934768677
			],
			"type":"VEC3"
		},
		{
			"bufferView":1,
			"componentType":5126,
			"count":36,
			"type":"VEC3"
		},
		{
			"bufferView":2,
			"componentType":5123,
			"count":180,
			"type":"SCALAR"
		}
	],
	"bufferViews":[
		{
			"buffer":0,
			"byteLength":432,
			"byteOffset":0,
			"target":34962
		},
		{
			"buffer":0,
			"byteLength":432,
			"byteOffset":432,
			"target":34962
		},
		{
			"buffer":0,
			"byteLength":360,
			"byteOffset":864,
			"target":34963
		}
	],
	"buffers":[
		{
			"byteLength":1224,
			"uri":"Arrow1.bin"
		}
	]
}
