{
	"asset":{
		"generator":"Khronos glTF Blender I/O v4.4.56",
		"version":"2.0"
	},
	"scene":0,
	"scenes":[
		{
			"name":"Scene",
			"nodes":[
				0,
				1
			]
		}
	],
	"nodes":[
		{
			"mesh":0,
			"name":"arrow4",
			"translation":[
				0,
				0,
				-0.7843411564826965
			]
		},
		{
			"mesh":1,
			"name":"arrow4.001",
			"translation":[
				0,
				0,
				-0.8743762969970703
			]
		}
	],
	"meshes":[
		{
			"name":"arrow4",
			"primitives":[
				{
					"attributes":{
						"POSITION":0,
						"NORMAL":1
					},
					"indices":2
				}
			]
		},
		{
			"name":"arrow4.001",
			"primitives":[
				{
					"attributes":{
						"POSITION":3,
						"NORMAL":4
					},
					"indices":5
				}
			]
		}
	],
	"accessors":[
		{
			"bufferView":0,
			"componentType":5126,
			"count":28,
			"max":[
				0.638370156288147,
				0.30979016423225403,
				1.4045321941375732
			],
			"min":[
				-0.6383227109909058,
				-0.3081567585468292,
				-1.0589748620986938
			],
			"type":"VEC3"
		},
		{
			"bufferView":1,
			"componentType":5126,
			"count":28,
			"type":"VEC3"
		},
		{
			"bufferView":2,
			"componentType":5123,
			"count":156,
			"type":"SCALAR"
		},
		{
			"bufferView":3,
			"componentType":5126,
			"count":20,
			"max":[
				0.6337050795555115,
				0.30726224184036255,
				2.609869956970215
			],
			"min":[
				-0.6429432034492493,
				-0.31068524718284607,
				1.2653818130493164
			],
			"type":"VEC3"
		},
		{
			"bufferView":4,
			"componentType":5126,
			"count":20,
			"type":"VEC3"
		},
		{
			"bufferView":5,
			"componentType":5123,
			"count":90,
			"type":"SCALAR"
		}
	],
	"bufferViews":[
		{
			"buffer":0,
			"byteLength":336,
			"byteOffset":0,
			"target":34962
		},
		{
			"buffer":0,
			"byteLength":336,
			"byteOffset":336,
			"target":34962
		},
		{
			"buffer":0,
			"byteLength":312,
			"byteOffset":672,
			"target":34963
		},
		{
			"buffer":0,
			"byteLength":240,
			"byteOffset":984,
			"target":34962
		},
		{
			"buffer":0,
			"byteLength":240,
			"byteOffset":1224,
			"target":34962
		},
		{
			"buffer":0,
			"byteLength":180,
			"byteOffset":1464,
			"target":34963
		}
	],
	"buffers":[
		{
			"byteLength":1644,
			"uri":"Arrow5.bin"
		}
	]
}
